<?xml version="1.0" encoding="utf-8"?>
<!-- Generated by IcoMoon.io -->
<!DOCTYPE svg PUBLIC "-//W3C//DTD SVG 1.1//EN" "http://www.w3.org/Graphics/SVG/1.1/DTD/svg11.dtd">
<svg version="1.1" xmlns="http://www.w3.org/2000/svg" xmlns:xlink="http://www.w3.org/1999/xlink" width="512" height="512" viewBox="0 0 512 512">
<g>
</g>
	<path d="M82.729 257.505c138.803 0 276.992 0 415.171 0 5.386 9.554 1.219 17.326-12.554 23.306-37.089 65.198-89.754 107.704-169.318 112.476-9.564 4.782-10.158 16.743-5.98 28.119 14.95 0 18.565 17.94 8.981 22.139l74.803 29.901-205.834 2.396 74.199-32.297c-5.406-14.981 1.792-19.763 11.961-22.139 7.188-18.565-1.209-25.723-17.367-28.119-73.584-3.604-122.020-51.456-158.515-110.684-17.357-11.94-22.743-16.149-15.544-25.098v0zM291.502 428.585c-11.356 0-20.941 3.604-20.941 7.199 0 4.178 9.584 7.783 20.941 7.783 11.981 0 20.951-3.604 20.951-7.783 0-3.604-8.97-7.199-20.951-7.199z" fill="#000000" />
	<path d="M109.035 243.732c2.99-9.575 18.544-25.713 41.288-32.297 7.168-17.337 13.752-19.138 20.93-22.139-40.059-61.604-93.328-96.328-153.129-114.852-23.347-24.546 23.306-29.328 56.218-38.297 47.257 38.297 86.763 85.555 122.061 138.199 8.376-14.357 17.357-28.13 25.723-42.476 2.98-46.663 31.724-69.376 78.356-75.991-8.377 15.575-10.168 29.911 2.396 42.496l7.783 5.98c-1.792 3.574-2.396 7.772-2.396 11.95 0 17.346 13.159 31.703 29.911 34.099h0.615c1.188 0 2.386 0 4.178 0 17.357 0 31.714-13.159 34.11-29.901 22.743 2.376 38.288 19.139 40.683 64.624-12.585 49.654-35.287 19.743-38.902-8.387-24.525 4.792-35.277 33.495-53.218 30.505-27.546-3.594-59.863 13.773-63.426 31.099-50.299 2.98-102.922 2.406-153.18 5.386z" fill="#000000" />
	<path d="M473.385 243.732c-8.346-15.554-27.525-30.505-49.644-37.079-2.99 28.703-47.882 26.91-53.873 0 2.396 2.386-23.931 21.535-52.029 16.743-22.159-3.584-34.704 20.93-39.475 19.763h129.802c21.565-0.614 44.278 1.157 65.219 0.573z" fill="#000000" />
	<path d="M342.375 154.665c22.457 0 40.724-18.555 40.724-41.359 0-22.466-18.258-40.745-40.724-40.745-11.070 0-21.474 4.229-29.255 11.919-7.803 7.701-12.103 17.93-12.103 28.816 0 11.131 4.281 21.545 12.042 29.307 7.772 7.782 18.186 12.063 29.317 12.063zM321.495 113.296c0-5.366 2.13-10.424 6-14.244 3.942-3.881 9.216-6.021 14.878-6.021 11.161 0 20.245 9.093 20.245 20.265 0 11.51-9.083 20.88-20.245 20.88-5.663 0-10.926-2.15-14.827-6.052s-6.052-9.165-6.052-14.828z" fill="#000000" />
</svg>
